<?xml version="1.0" standalone="no"?>
<!DOCTYPE svg PUBLIC "-//W3C//DTD SVG 20010904//EN"
 "http://www.w3.org/TR/2001/REC-SVG-20010904/DTD/svg10.dtd">
<svg version="1.0" xmlns="http://www.w3.org/2000/svg"
 width="260.000000pt" height="260.000000pt" viewBox="0 0 260.000000 260.000000"
 preserveAspectRatio="xMidYMid meet">
<metadata>
Created by potrace 1.11, written by Peter Selinger 2001-2013
</metadata>
<g transform="translate(0.000000,260.000000) scale(0.100000,-0.100000)"
fill="#000000" stroke="none">
<path d="M372 2328 c3 -7 40 -24 83 -38 78 -25 79 -27 100 -75 l22 -49 -73
-36 c-40 -21 -94 -55 -121 -77 -35 -29 -58 -40 -87 -42 -150 -8 -215 -193
-106 -302 11 -11 17 -37 19 -72 4 -94 26 -171 74 -251 133 -227 401 -402 757
-495 l102 -26 55 -130 c56 -133 71 -156 101 -150 9 2 24 4 33 4 10 1 35 46 74
136 31 75 59 134 62 132 2 -3 43 4 91 14 47 10 87 19 89 19 2 0 3 -60 3 -134
l0 -134 -30 -7 c-58 -13 -41 -25 37 -26 43 0 99 -1 126 -2 55 -2 60 7 15 26
l-33 14 0 157 1 157 52 45 c59 52 103 111 132 179 11 25 18 45 16 45 -2 0 -19
-26 -39 -58 -37 -60 -132 -162 -151 -162 -8 0 -11 90 -10 312 1 172 2 316 3
320 1 3 18 12 39 20 36 13 34 13 -68 18 -114 5 -163 2 -155 -10 3 -5 19 -11
35 -15 l30 -7 0 -101 c0 -99 -1 -106 -46 -212 -25 -60 -50 -119 -55 -130 -5
-11 -31 -72 -57 -135 -45 -107 -51 -115 -78 -118 -33 -3 -10 -50 -248 508
-254 599 -296 698 -296 704 0 3 15 4 33 1 17 -2 59 -7 92 -10 289 -30 686
-188 1005 -400 389 -259 563 -523 505 -766 -71 -302 -316 -495 -730 -578 -95
-19 -131 -24 -250 -37 -121 -13 -436 -6 -590 12 -22 3 -60 7 -83 10 -37 4
-246 43 -317 60 -50 11 -126 20 -260 29 -44 3 -109 8 -145 10 l-65 5 40 -14
c37 -13 217 -58 275 -70 14 -2 45 -9 70 -15 25 -5 59 -12 75 -15 90 -17 214
-38 240 -42 17 -2 48 -6 70 -10 22 -4 51 -8 65 -9 61 -7 138 -16 175 -21 100
-13 533 -12 645 2 487 61 758 268 820 627 12 65 9 264 -3 316 -64 255 -238
479 -507 654 -242 156 -586 282 -855 312 -33 4 -69 9 -80 11 -11 2 -73 5 -138
5 -115 2 -119 2 -130 26 -14 30 -9 33 83 57 44 12 70 24 70 32 0 12 -53 14
-306 14 -240 0 -305 -3 -302 -12z m240 -245 c9 -21 120 -276 247 -568 126
-291 226 -531 221 -533 -18 -7 -251 78 -347 127 -242 121 -402 298 -448 497
-11 48 -11 54 4 55 84 3 138 30 172 85 23 39 32 112 18 153 -10 29 -64 91 -80
91 -20 0 -7 26 26 53 39 31 131 77 156 77 9 0 23 -16 31 -37z m1036 -1139 c-2
-1 -38 -5 -80 -9 l-77 -7 77 179 77 178 3 -169 c1 -93 1 -170 0 -172z"/>
</g>
</svg>
