<?xml version="1.0" standalone="no"?>
<!DOCTYPE svg PUBLIC "-//W3C//DTD SVG 20010904//EN"
 "http://www.w3.org/TR/2001/REC-SVG-20010904/DTD/svg10.dtd">
<svg version="1.0" xmlns="http://www.w3.org/2000/svg"
 width="700.000000pt" height="700.000000pt" viewBox="0 0 700.000000 700.000000"
 preserveAspectRatio="xMidYMid meet">
<metadata>
Created by potrace 1.11, written by Peter Selinger 2001-2013
</metadata>
<g transform="translate(0.000000,700.000000) scale(0.100000,-0.100000)"
fill="#000000" stroke="none">
<path d="M3229 6975 c-56 -18 -132 -83 -162 -139 -32 -59 -32 -213 0 -271 30
-55 89 -110 148 -137 77 -35 200 -33 277 5 102 50 158 143 158 262 0 116 -52
206 -151 260 -46 24 -67 29 -139 32 -55 2 -101 -2 -131 -12z"/>
<path d="M4499 6736 c-110 -29 -190 -132 -205 -261 -19 -159 125 -318 300
-332 91 -8 156 16 222 81 180 180 90 456 -168 516 -55 12 -92 12 -149 -4z"/>
<path d="M6010 6364 c-1798 -1035 -2310 -1354 -2838 -1767 -273 -214 -634
-558 -844 -807 -350 -414 -718 -960 -1188 -1762 -80 -136 -147 -247 -150 -247
-3 -1 -37 48 -76 107 -269 406 -433 839 -505 1330 -26 182 -36 513 -19 697 57
656 289 1237 699 1755 l92 115 -119 -121 c-502 -513 -811 -1111 -914 -1769
-32 -205 -32 -616 0 -825 57 -366 173 -716 345 -1040 73 -137 214 -358 293
-461 24 -32 44 -60 44 -63 0 -3 -181 -318 -401 -701 -221 -383 -400 -697 -398
-699 2 -2 80 42 174 97 830 486 1220 709 1231 701 6 -5 59 -43 115 -85 756
-550 1653 -752 2508 -563 541 120 1099 432 1537 860 112 109 119 118 54 66
-381 -305 -786 -512 -1225 -628 -752 -198 -1516 -127 -2220 206 -167 78 -505
285 -505 308 0 4 24 20 53 36 28 16 192 113 362 214 748 446 1147 710 1505
997 592 475 986 956 1602 1960 178 290 339 565 918 1560 265 457 491 845 502
863 11 17 16 32 11 32 -4 0 -294 -165 -643 -366z m-2523 -2595 c285 -107 292
-565 10 -695 -55 -26 -73 -29 -162 -29 -86 1 -108 4 -156 27 -65 30 -129 89
-159 148 -113 222 -16 495 200 561 14 4 66 8 117 8 71 1 105 -4 150 -20z"/>
<path d="M6299 4977 c-144 -41 -221 -139 -221 -282 1 -103 31 -175 102 -247
43 -43 69 -60 110 -72 70 -21 95 -20 171 4 82 26 150 76 186 137 25 44 28 57
28 143 0 79 -4 103 -23 141 -70 142 -216 215 -353 176z"/>
<path d="M6557 3720 c-95 -24 -151 -72 -193 -164 -75 -163 -1 -368 154 -426
120 -46 264 -9 337 87 121 159 63 417 -110 487 -49 21 -138 28 -188 16z"/>
</g>
</svg>
