<svg xmlns="http://www.w3.org/2000/svg" xml:space="preserve" id="Layer_1" x="0" y="0" style="enable-background:new 0 0 612 236.2" version="1.1" viewBox="0 0 612 236.2"><style>.st0{fill:#02334e}.st4{fill:#569bbe}</style><path d="m65.5 38.2-12-3.6v-1.9h45.3v1.9l-12.4 3.6 44.7 105.4 24.2-57.8h4.2L126 164.2h-6.2l-54.3-126z" class="st0"/><path d="m155.3 85.7-3.5-1v-.5H163v.5l-3.5 1h-4.2zM209.8 46.4l-6.3-1.9v-1h23.6v1l-6.5 1.9 23.3 54.9L267 46.4l-8.6-1.9v-1h17.4v1l-6.7 1.9-27.9 65.7H238l-28.2-65.7zM291.2 62.8c14.6 0 24.7 9.8 24.7 24.9 0 15.3-10.1 24.9-24.7 24.9-14.7 0-24.8-9.6-24.8-24.9.1-15.2 10.1-24.9 24.8-24.9zm0 48.3c8.5 0 14.3-8 14.3-23.4 0-15.5-5.8-23.5-14.3-23.5-8.4 0-14.3 8-14.3 23.5 0 15.4 5.9 23.4 14.3 23.4zM323.1 66l-5.8-1.9v-1h22.3v1l-6 1.9 16 35.5 16-35.5-8.1-1.9v-1H374v1l-6.3 1.9-20.7 46.1c-5.9 13-9.8 19.8-16.5 19.8-3.3 0-8.6-1.6-8.6-7.1 0-3.5 2.1-5.4 5-5.4 3.1 0 5.3 2.1 5.3 5.4v3.9c.4.2.7.3 1.1.3 3.8 0 7.4-7.2 11.3-15.9L323.1 66zM405.8 105.9c-4.5 4.2-10.8 6.8-17.5 6.8-9.1 0-13.2-4.5-13.2-11.3 0-11.4 11.5-13.1 30.7-16.2V76c0-6.8-3.6-11.4-10.2-11.4-2.5 0-4.9.7-7.2 2.3v7.9c0 4-2.5 6.5-6 6.5-3.3 0-5.9-2.2-5.9-6.2 0-7.7 9.5-12 19.3-12 13.1 0 20.2 6.5 20.2 14.9v29.8c0 1.9.8 2.4 2.3 2.4 1 0 2.4-.3 3.2-1.1l.7.7c-1.9 1.9-5 2.6-8.9 2.6-4.1 0-6.8-1.5-7.2-6.1l-.3-.4zm0-19.4c-13.8 2.2-20.4 2.9-20.4 13.5 0 6.1 3.1 9.2 8.1 9.2 4.4 0 9-2.2 12.2-5.6V86.5zM463.9 66.2c4.6 2.7 7.3 7.1 7.3 12.7 0 9.7-8.4 15.8-20.5 15.8-5 0-9.4-1-12.7-2.9-2 2.2-2.7 4.7-2.7 6.8 0 3.6 2.4 5.4 7.7 5.4h16.5c11 0 15.7 4.4 15.7 12 0 10.2-9 16-27.1 16-12.4 0-20.1-2.8-20.1-8.7 0-4.3 3.9-7.8 9-10.8-4.5-1.3-6.8-4.3-6.8-9.3 0-4.7 2.2-7.8 6.7-12.1-4.1-2.7-6.6-6.8-6.6-12.1 0-9.8 8.4-15.9 20.4-15.9 1.2 0 2.3.1 3.5.2h20.5v1l-6.7 2.1h-4.1zm-24 46.8c-3.1 3.5-3.8 5.8-3.8 8.2 0 6.9 5.4 9.1 14 9.1 11.4 0 18.8-3.8 18.8-10.4 0-3.6-2.3-6.8-8.4-6.8h-17.6c-1.1.1-2.1 0-3-.1zm10.8-19.8c6.4 0 10.9-4.9 10.9-14.4 0-9.4-4.5-14.4-10.9-14.4-6.3 0-10.8 4.9-10.8 14.4 0 9.6 4.5 14.4 10.8 14.4zM491.5 87.6c0 13.7 6.3 21.9 19 21.9 5.5 0 10.2-1.6 14.4-5.8l1.1 1.2c-4.8 4.8-11.1 7.6-19.7 7.6-17 0-25.2-10.6-25.2-24.4 0-15.6 10.4-25.4 24.6-25.4 12.7 0 21.9 8 21.9 19.7 0 1.2-.1 2.6-.5 3.9l-1.4 1.3h-34.2zm0-1.5 26-1.5c0-13.6-4.3-20.4-11.5-20.4-7.1 0-14.2 6.8-14.5 21.9zM539.5 66.4l-5.9-1.3V64l14.8-1.6 1.3 1.4-.3 8.6.3.3s4.6-10 14.3-10c6.3 0 11.3 4.2 11.3 10.6 0 4.6-2.6 6.6-6 6.6-3.7 0-6.3-2.5-6.3-6.6v-7.8c-.4-.3-.9-.4-1.6-.4-7.7 0-11.8 11.2-11.8 11.2v33l8.8 1.9v1h-24.9v-1l5.9-1.9V66.4z" class="st0"/><path d="M229.7 123.8h88.1" style="fill:#02334e;stroke:#000;stroke-width:2.1505;stroke-miterlimit:10"/><path d="M346.6 123.8h76.9" style="fill:#02334e;stroke:#000;stroke-width:1.9009;stroke-miterlimit:10"/><path d="M478.6 123.8H575" style="fill:#02334e;stroke:#000;stroke-width:2.4127;stroke-miterlimit:10"/><path d="M76.8 185.2c42.8 6.7 85.5-2.9 111.5-23.4 21.5-16.5 28.5-38.1 22.8-57.6-10.7-33.2-48.6-46.5-72.6-52-11.5-2.7-23.9-4.1-35.8-3.9-12.3.3-24.1 1.4-35.1 6-24.1 8.8-41.9 27.7-30.3 47.1 7.9 15.2 30.6 26.6 55.7 30 9 1.2-37.1-4.2-52.7-30.9C29 81.9 50.5 62 69.1 55.1c10.1-3.6 22.1-5.5 34-5.8 11.5-.3 23.6 1.2 34.7 3.8 38.2 9 58.1 35.1 62.4 49.2 5.7 17.4.7 37.5-18 54-22.6 20.4-62.3 32.6-105.4 28.9zM250.2 137c13 0 22.1 8.6 22.1 22.8 0 14.3-9.1 22.8-22.1 22.8h-20.7v-.6l4.2-1v-42.4l-4.2-1v-.6h20.7zm-9.5 1.3v42.9h9.5c8.6 0 14.8-7.1 14.8-21.4 0-14.4-6.2-21.5-14.8-21.5h-9.5zM298.5 161.3l14.4-22.4-5.5-1.2v-.7H319v.7l-4.6 1.2-15.2 23.9v17.9l4 1.2v.7H288v-.7l4.2-1.2v-17.9L277 138.9l-4-1.2v-.7h15.7v.7l-4.3 1.2 14.1 22.4zM325.6 180.8v-41.9l-4.2-1.2v-.7H333l25.7 35.8v-34l-4.2-1.2v-.6h9.8v.6l-4.2 1.2v43.7h-2l-31-43v41.3l4.2 1.2v.5h-9.8v-.5l4.1-1.2zM410.5 180.6l4.2 1.2v.7H399v-.7l4.3-1.2-5.5-13.2h-19.6l-5.7 13.2 5.7 1.2v.7h-11.6v-.7l4.4-1.2 19-43.6h2.1l18.4 43.6zm-31.7-14.5h18.5l-9-21.9-9.5 21.9zM470.6 180.6l4 1.2v.7h-15.2v-.7l4.2-1.2-2.7-37.6-16.7 39.5h-2.1l-17-39.6-2.8 37.8 4 1.2v.5h-9.6v-.4l4.2-1.2 3.1-41.9-4.2-1.2v-.7h9.9l16.3 38.4 16.1-38.4h9.6v.7l-4 1.2 2.9 41.7zM488.7 180.6l4 1.2v.7h-15.1v-.7l4.2-1.2v-41.7l-4.2-1.2v-.7h15.1v.7l-4 1.2v41.7zM537.2 176.3c-4.3 4.4-9.9 6.6-16.8 6.6-13.7 0-22.4-8.8-22.4-23.1 0-14.2 8.8-23.1 22.2-23.1 4.9 0 10 1.2 13.5 3.9l2.7-1.6.7.6v9H536c-1.9-9-10.3-10.4-14.5-10.4-9.9 0-16.1 7.3-16.1 21.4 0 12.8 5.6 21.3 17.5 21.3 5 0 9.9-1.4 13.7-5.3l.6.7zM544.9 171.9h1.2c2 8.5 9 10 13.4 10 7.2 0 11.5-3.6 11.5-9.9 0-6-4.2-7.4-11.4-9.5-7.3-2.1-14.6-4.2-14.6-13.1 0-7.2 4.6-12.9 15-12.9 4.4 0 7.9 1.1 10.9 3.1l2.7-1.9.6.7v9.2H573c-1.9-8.5-8.3-10.1-12.2-10.1-6.4 0-10.4 3.8-10.4 9.2 0 5.7 4.3 7 10.7 8.9 7.7 2.4 15.3 5 15.3 14 0 7.4-4.9 13.2-16.4 13.2-4.7 0-8.5-1-11.8-3.1l-2.8 2-.7-.7v-9.1z" class="st4"/><path d="M233.9 192.5v15.6l2.4.5v.2h-6.6v-.2l1.6-.5v-15.5l-1.6-.4v-.2h6.8c3.8 0 6.4 1.8 6.4 4.8s-2.6 4.8-6.4 4.8h-1.9l-.3-.3v-.2h1.9c2.4 0 4.1-1.4 4.1-4.3s-1.7-4.3-4.1-4.3h-2.3zM244.6 208.6l1.4-.5v-10.5l-1.4-.3v-.3l3.6-.4.3.3V208l1.4.5v.2h-5.4v-.1zm2.5-16.8c1 0 1.7.7 1.7 1.7s-.7 1.7-1.7 1.7-1.7-.7-1.7-1.7.7-1.7 1.7-1.7zM257.4 196.7c3.6 0 6 2.4 6 6.1 0 3.7-2.5 6.1-6 6.1-3.6 0-6.1-2.4-6.1-6.1 0-3.7 2.5-6.1 6.1-6.1zm0 11.9c2.1 0 3.5-2 3.5-5.7 0-3.8-1.4-5.8-3.5-5.8s-3.5 2-3.5 5.8c0 3.7 1.5 5.7 3.5 5.7zM268.8 208.1l1.3.5v.2h-5.2v-.2l1.4-.5v-10.5l-1.4-.3v-.3l3.6-.4.3.3-.1 1.5.1.1c1.2-1.2 3.1-1.8 4.7-1.8 2.5 0 3.6 1.7 3.6 4.1v7.3l1.4.5v.2h-5.2v-.2l1.3-.5v-6.9c0-2.1-.7-3.7-2.5-3.7-1.2 0-2.5.6-3.4 1.5v9.1zM282.2 202.8c0 3.4 1.5 5.4 4.7 5.4 1.3 0 2.5-.4 3.5-1.4l.3.3c-1.2 1.2-2.7 1.9-4.8 1.9-4.2 0-6.2-2.6-6.2-6 0-3.8 2.5-6.2 6-6.2 3.1 0 5.4 2 5.4 4.8 0 .3 0 .6-.1 1l-.3.3h-8.5zm0-.3 6.4-.4c0-3.3-1.1-5-2.8-5-1.8 0-3.5 1.6-3.6 5.4zM295.6 202.8c0 3.4 1.5 5.4 4.7 5.4 1.3 0 2.5-.4 3.5-1.4l.3.3c-1.2 1.2-2.7 1.9-4.8 1.9-4.2 0-6.2-2.6-6.2-6 0-3.8 2.5-6.2 6-6.2 3.1 0 5.4 2 5.4 4.8 0 .3 0 .6-.1 1l-.3.3h-8.5zm0-.3 6.4-.4c0-3.3-1.1-5-2.8-5-1.8 0-3.5 1.6-3.6 5.4zM307.4 197.6l-1.4-.3v-.3l3.6-.4.3.3-.1 2.1.1.1s1.1-2.4 3.5-2.4c1.5 0 2.8 1 2.8 2.6 0 1.1-.6 1.6-1.5 1.6s-1.5-.6-1.5-1.6v-1.9c-.1-.1-.2-.1-.4-.1-1.9 0-2.9 2.7-2.9 2.7v8.1l2.2.5v.2H306v-.2l1.4-.5v-10.5zM317.5 208.6l1.4-.5v-10.5l-1.4-.3v-.3l3.6-.4.3.3V208l1.4.5v.2h-5.4v-.1zm2.6-16.8c1 0 1.7.7 1.7 1.7s-.7 1.7-1.7 1.7-1.7-.7-1.7-1.7.7-1.7 1.7-1.7zM327.8 208.1l1.3.5v.2h-5.2v-.2l1.4-.5v-10.5l-1.4-.3v-.3l3.6-.4.3.3-.1 1.5.1.1c1.2-1.2 3.1-1.8 4.7-1.8 2.5 0 3.6 1.7 3.6 4.1v7.3l1.4.5v.2h-5.2v-.2l1.3-.5v-6.9c0-2.1-.7-3.7-2.5-3.7-1.2 0-2.5.6-3.4 1.5v9.1zM347.6 197.6c1.1.7 1.8 1.8 1.8 3.1 0 2.4-2.1 3.9-5 3.9-1.2 0-2.3-.2-3.1-.7-.5.6-.7 1.2-.7 1.7 0 .9.6 1.3 1.9 1.3h4.1c2.7 0 3.8 1.1 3.8 3 0 2.5-2.2 3.9-6.6 3.9-3 0-4.9-.7-4.9-2.1 0-1.1 1-1.9 2.2-2.6-1.1-.3-1.7-1.1-1.7-2.3 0-1.2.6-1.9 1.6-3-1-.7-1.6-1.7-1.6-3 0-2.4 2.1-3.9 5-3.9h5.9v.2l-1.6.5h-1.1zm-5.9 11.4c-.8.9-.9 1.4-.9 2 0 1.7 1.3 2.2 3.4 2.2 2.8 0 4.6-.9 4.6-2.5 0-.9-.6-1.7-2.1-1.7h-4.3c-.2.1-.5.1-.7 0zm2.7-4.8c1.6 0 2.7-1.2 2.7-3.5s-1.1-3.5-2.7-3.5c-1.5 0-2.6 1.2-2.6 3.5-.1 2.3 1 3.5 2.6 3.5zM366 200.9c.7.3 1.2 1 1.7 1.7l3.2 5.5 1.4.4v.2h-3.7l-4.4-7.8h-2.8v7.1l1.6.5v.2h-5.7v-.2l1.6-.5v-15.5l-1.6-.4v-.1h7.2c3.5 0 6 1.7 6 4.6-.2 2.4-1.9 4-4.5 4.3zm-4.7-8.4v8.1h2.7c2.1 0 3.6-1.3 3.6-4s-1.5-4.1-3.6-4.1h-2.7zM375.2 202.8c0 3.4 1.5 5.4 4.7 5.4 1.3 0 2.5-.4 3.5-1.4l.3.3c-1.2 1.2-2.7 1.9-4.8 1.9-4.2 0-6.2-2.6-6.2-6 0-3.8 2.5-6.2 6-6.2 3.1 0 5.4 2 5.4 4.8 0 .3 0 .6-.1 1l-.3.3h-8.5zm0-.3 6.4-.4c0-3.3-1.1-5-2.8-5-1.8 0-3.5 1.6-3.6 5.4zM385.5 208.6l1.4-.5v-15.8l-1.4-.3v-.3l3.6-.4.3.3V208l1.4.5v.2h-5.4v-.1zM391.8 208.6l1.4-.5v-10.5l-1.4-.3v-.3l3.6-.4.3.3V208l1.4.5v.2h-5.4v-.1zm2.5-16.8c1 0 1.7.7 1.7 1.7s-.7 1.7-1.7 1.7-1.7-.7-1.7-1.7.7-1.7 1.7-1.7zM406.3 207.3c-1.1 1-2.6 1.7-4.3 1.7-2.2 0-3.2-1.1-3.2-2.8 0-2.8 2.8-3.2 7.5-4v-2.3c0-1.7-.9-2.8-2.5-2.8-.6 0-1.2.2-1.8.6v1.9c0 1-.6 1.6-1.5 1.6-.8 0-1.4-.5-1.4-1.5 0-1.9 2.3-3 4.7-3 3.2 0 4.9 1.6 4.9 3.6v7.3c0 .5.2.6.6.6.2 0 .6-.1.8-.3l.2.2c-.5.5-1.2.6-2.2.6-.9.2-1.6-.2-1.8-1.4zm0-4.7c-3.4.5-5 .7-5 3.3 0 1.5.8 2.3 2 2.3 1.1 0 2.2-.5 3-1.4v-4.2zM412.6 192.3l-1.4-.3v-.3l3.6-.4.3.3v5.1l-.1 1.5.1.1c1-1 2.3-1.7 3.9-1.7 3.2 0 4.7 2.4 4.7 5.8 0 4.2-2.2 6.4-6.5 6.4-1.3 0-3.2-.2-4.6-.8v-15.7zm2.5 15.8c.8.3 1.6.5 2.3.5 2.5 0 3.8-2 3.8-5.6 0-3.2-1.3-5.4-3.4-5.4-1.1 0-2 .5-2.7 1.3v9.2zM425.2 208.6l1.4-.5v-10.5l-1.4-.3v-.3l3.6-.4.3.3V208l1.4.5v.2h-5.4v-.1zm2.5-16.8c1 0 1.7.7 1.7 1.7s-.7 1.7-1.7 1.7-1.7-.7-1.7-1.7.7-1.7 1.7-1.7zM431.4 208.6l1.4-.5v-15.8l-1.4-.3v-.3l3.6-.4.3.3V208l1.4.5v.2h-5.4v-.1zM437.7 208.6l1.4-.5v-10.5l-1.4-.3v-.3l3.6-.4.3.3V208l1.4.5v.2h-5.4v-.1zm2.5-16.8c1 0 1.7.7 1.7 1.7s-.7 1.7-1.7 1.7-1.7-.7-1.7-1.7.8-1.7 1.7-1.7zM444 197.1c1.7-.4 2.9-1.7 3.6-3l.3.3v2.4h3.9v.5H448v8.4c0 1.5.6 2.5 2 2.5.7 0 1.4-.3 1.9-.8l.3.3c-.8.8-1.8 1.3-3.3 1.3-2.3 0-3.4-1.4-3.4-3.2v-8.4H444v-.3zM454.5 197.5l-1.4-.5v-.2h5.5v.2l-1.5.5 3.9 8.7 3.9-8.7-2-.5v-.2h4.1v.2l-1.5.5-5.1 11.3c-1.4 3.2-2.4 4.8-4.1 4.8-.8 0-2.1-.4-2.1-1.8 0-.9.5-1.3 1.2-1.3.8 0 1.3.5 1.3 1.3v1c.1 0 .2.1.3.1.9 0 1.8-1.8 2.8-3.9l-5.3-11.5zM473.8 204.9h.4c.7 3.1 3.3 3.7 4.9 3.7 2.6 0 4.2-1.3 4.2-3.6 0-2.2-1.5-2.7-4.2-3.5-2.7-.8-5.4-1.5-5.4-4.8 0-2.6 1.7-4.8 5.5-4.8 1.6 0 2.9.4 4 1.1l1-.7.2.2v3.4h-.4c-.7-3.1-3-3.7-4.5-3.7-2.4 0-3.8 1.4-3.8 3.4 0 2.1 1.6 2.6 3.9 3.3 2.8.9 5.6 1.8 5.6 5.2 0 2.7-1.8 4.9-6 4.9-1.7 0-3.1-.4-4.3-1.1l-1 .7-.2-.2v-3.5zM493.6 196.7c3.6 0 6 2.4 6 6.1 0 3.7-2.5 6.1-6 6.1-3.6 0-6.1-2.4-6.1-6.1 0-3.7 2.5-6.1 6.1-6.1zm0 11.9c2.1 0 3.5-2 3.5-5.7 0-3.8-1.4-5.8-3.5-5.8s-3.5 2-3.5 5.8c0 3.7 1.4 5.7 3.5 5.7zM501 208.6l1.4-.5v-15.8l-1.4-.3v-.3l3.6-.4.3.3V208l1.4.5v.2H501v-.1zM521 208.3v.3l-3.6.3-.3-.3.1-1.4-.1-.1c-1.2 1.2-3 1.8-4.5 1.8-2.5 0-3.8-1.6-3.8-3.8v-7.5l-1.4-.3v-.3l3.6-.4.3.3v7.8c0 1.9.7 3.4 2.5 3.4 1.1 0 2.4-.5 3.3-1.5v-9l-1.4-.3v-.3l3.6-.4.3.3v11l1.4.4zM521.8 197.1c1.7-.4 2.9-1.7 3.6-3l.3.3v2.4h3.9v.5h-3.9v8.4c0 1.5.6 2.5 2 2.5.7 0 1.4-.3 1.9-.8l.3.3c-.8.8-1.8 1.3-3.3 1.3-2.3 0-3.4-1.4-3.4-3.2v-8.4h-1.5v-.3zM531.1 208.6l1.4-.5v-10.5l-1.4-.3v-.3l3.6-.4.3.3V208l1.4.5v.2H531v-.1zm2.5-16.8c1 0 1.7.7 1.7 1.7s-.7 1.7-1.7 1.7-1.7-.7-1.7-1.7.7-1.7 1.7-1.7zM543.9 196.7c3.6 0 6 2.4 6 6.1 0 3.7-2.5 6.1-6 6.1-3.6 0-6.1-2.4-6.1-6.1.1-3.7 2.5-6.1 6.1-6.1zm0 11.9c2.1 0 3.5-2 3.5-5.7 0-3.8-1.4-5.8-3.5-5.8s-3.5 2-3.5 5.8c0 3.7 1.5 5.7 3.5 5.7zM555.3 208.1l1.3.5v.2h-5.2v-.2l1.4-.5v-10.5l-1.4-.3v-.3l3.6-.4.3.3-.1 1.5.1.1c1.2-1.2 3.1-1.8 4.7-1.8 2.5 0 3.6 1.7 3.6 4.1v7.3l1.4.5v.2h-5.2v-.2l1.3-.5v-6.9c0-2.1-.7-3.7-2.5-3.7-1.2 0-2.5.6-3.4 1.5v9.1zM566.7 205.7h.5c.5 2.3 2.1 2.8 3.5 2.8 1.8 0 3.1-.9 3.1-2.4s-1.2-1.8-3.1-2.3c-2-.5-4-1.1-4-3.6 0-2 1.2-3.5 4.2-3.5 1.1 0 2.2.3 3.1.7l.5-.4.2.2v2.6h-.5c-.5-2.3-2.1-2.8-3.2-2.8-1.7 0-2.7.9-2.7 2.2 0 1.3 1.1 1.7 2.7 2.2 2.1.6 4.4 1.3 4.4 3.9 0 2-1.3 3.5-4.7 3.5-1.3 0-2.4-.2-3.3-.7l-.5.4-.2-.2v-2.6z" class="st0"/><path d="M26.1 91.4c1.1 6.2 7 10.4 13.2 9.3 6.2-1.1 10.4-7 9.3-13.2s-7-10.4-13.2-9.3c-6.2 1.1-10.3 7-9.3 13.2z" class="st4"/><path d="m68.2 44.3 19.1-4 5.1 12-18.9 4.3z" class="st0"/></svg>